# xmcd CD database file
#
# Track frame offsets:
#	150
#	25573
#	48880
#	73274
#	102073
#	133217
#	159683
#	193101
#	229077
#	270424
#	324533
#
# Disc length: 4683 seconds
#
# Revision: 0
# Processed by: cddbd v1.5.2PL0 Copyright (c) Steve Scherf et al.
# Submitted via: CDex 1.70beta2
#
DISCID=9412490b
DTITLE=John Coltrane - The pianist' touch
DYEAR=2007
DGENRE=Jazz
TTITLE0=Mating Call
TTITLE1=Gnid
TTITLE2=Soultrane
TTITLE3=On a misty night
TTITLE4=Romas
TTITLE5=Super jet
TTITLE6=Minor Mishap
TTITLE7=Eclypso
TTITLE8=Solacium
TTITLE9=Tommy's time
TTITLE10=How long has this been going on?
EXTD=YEAR: 2007
EXTT0=
EXTT1=
EXTT2=
EXTT3=
EXTT4=
EXTT5=
EXTT6=
EXTT7=
EXTT8=
EXTT9=
EXTT10=
PLAYORDER=
